<svg xmlns="http://www.w3.org/2000/svg" xmlns:xlink="http://www.w3.org/1999/xlink" version="1.1" x="0px" y="0px" viewBox="0 0 48 60" style="enable-background:new 0 0 48 48;" xml:space="preserve"><g><path d="M35,39.26H13c-0.55,0-1-0.45-1-1v-17c0-5.51,4.49-10,10-10h4c5.51,0,10,4.49,10,10v17C36,38.81,35.55,39.26,35,39.26z    M14,37.26h20v-16c0-4.41-3.59-8-8-8h-4c-4.41,0-8,3.59-8,8V37.26z"/><path d="M25.16,12.74c-0.05,0-0.1,0-0.15-0.01c-0.79-0.12-1.27-0.12-2.05-0.01c-0.27,0.04-0.55-0.04-0.77-0.21   C21.44,11.9,21,10.96,21,9.95c0-1.77,1.35-3.21,3-3.21s3,1.44,3,3.21c0,1.01-0.46,1.97-1.22,2.58   C25.61,12.67,25.39,12.74,25.16,12.74z M23.96,10.64c0.26,0,0.53,0.01,0.82,0.04C24.92,10.48,25,10.22,25,9.95   c0-0.67-0.45-1.21-1-1.21s-1,0.54-1,1.21c0,0.27,0.08,0.52,0.21,0.73C23.47,10.65,23.72,10.64,23.96,10.64z"/><path d="M40,39.26H8c-0.55,0-1-0.45-1-1s0.45-1,1-1h32c0.55,0,1,0.45,1,1S40.55,39.26,40,39.26z"/><path d="M24,41.26c-0.95,0-1.85-0.41-2.41-1.09c-0.5-0.6-0.69-1.35-0.54-2.1c0.04-0.2,0.13-0.38,0.27-0.52   c0.05-0.05,0.1-0.09,0.16-0.13c0.16-0.11,0.36-0.17,0.55-0.17h3.93c0.24,0,0.47,0.09,0.65,0.24c0.17,0.15,0.29,0.35,0.33,0.57   c0.15,0.75-0.05,1.49-0.54,2.1C25.85,40.85,24.95,41.26,24,41.26z"/></g><text x="0" y="63" fill="#000000" font-size="5px" font-weight="bold" font-family="'Helvetica Neue', Helvetica, Arial-Unicode, Arial, Sans-serif">Created by Ade Nur Hidayat</text><text x="0" y="68" fill="#000000" font-size="5px" font-weight="bold" font-family="'Helvetica Neue', Helvetica, Arial-Unicode, Arial, Sans-serif">from the Noun Project</text></svg>