<svg xmlns="http://www.w3.org/2000/svg" xmlns:xlink="http://www.w3.org/1999/xlink" version="1.1" x="0px" y="0px" viewBox="0 0 100 125" style="enable-background:new 0 0 100 100;" xml:space="preserve"><g><path d="M20,39.0734863v21.8530273c0,3.7908936,3.0841064,6.875,6.875,6.875h30.7958984c3.7908936,0,6.875-3.0841064,6.875-6.875   v-7.4819183l12.5494385,8.2436371c0.3118896,0.2044678,0.670166,0.3076172,1.0296631,0.3076172   c0.3057861,0,0.6115723-0.0744629,0.8905029-0.2246094C79.6221924,61.4434814,80,60.8099365,80,60.1208496V39.8791504   c0-0.6890869-0.3778076-1.3226318-0.9844971-1.6503906c-0.6079102-0.3277588-1.3439941-0.2966309-1.920166,0.0830078   l-12.5494385,8.2436371v-7.4819183c0-3.7908936-3.0841064-6.875-6.875-6.875H26.875   C23.0841064,32.1984863,20,35.2825928,20,39.0734863z M76.25,43.3538818v13.2922363L66.1328125,50L76.25,43.3538818z    M23.75,39.0734863c0-1.7230225,1.4019775-3.125,3.125-3.125h30.7958984c1.7230225,0,3.125,1.4019775,3.125,3.125v21.8530273   c0,1.7230225-1.4019775,3.125-3.125,3.125H26.875c-1.7230225,0-3.125-1.4019775-3.125-3.125V39.0734863z"/><path d="M34.3762207,51.875h5.5059814v5.5059814c0,1.0357666,0.8392334,1.875,1.875,1.875s1.875-0.8392334,1.875-1.875V51.875   h5.5059814c1.0357666,0,1.875-0.8392334,1.875-1.875s-0.8392334-1.875-1.875-1.875h-5.5059814v-5.5059814   c0-1.0357666-0.8392334-1.875-1.875-1.875s-1.875,0.8392334-1.875,1.875V48.125h-5.5059814   c-1.0357666,0-1.875,0.8392334-1.875,1.875S33.3404541,51.875,34.3762207,51.875z"/></g><text x="0" y="115" fill="#000000" font-size="5px" font-weight="bold" font-family="'Helvetica Neue', Helvetica, Arial-Unicode, Arial, Sans-serif">Created by Mahesh Keshvala</text><text x="0" y="120" fill="#000000" font-size="5px" font-weight="bold" font-family="'Helvetica Neue', Helvetica, Arial-Unicode, Arial, Sans-serif">from the Noun Project</text></svg>