<svg xmlns="http://www.w3.org/2000/svg" xmlns:xlink="http://www.w3.org/1999/xlink" version="1.1" x="0px" y="0px" viewBox="0 0 100 125" style="enable-background:new 0 0 100 100;" xml:space="preserve"><style type="text/css">
	.st0{fill-rule:evenodd;clip-rule:evenodd;}
</style><path class="st0" d="M74.343,47.075c0-3.483,5.292-3.483,5.292,0c0,8.783-2.793,16.011-8.703,21.921  c-4.783,4.783-11.184,7.95-18.286,8.585v14.772c0,3.483-5.292,3.483-5.292,0V77.581C32.219,76.228,20.365,63.42,20.365,48.064v-0.99  c0-3.483,5.292-3.483,5.292,0c0,7.306,2.195,13.222,7.153,18.18c15.441,15.441,41.533,4.192,41.533-17.19V47.075L74.343,47.075z   M50,5.035c-10.483,0-19.051,8.568-19.051,19.051v23.979c0,5.242,2.143,10.006,5.594,13.457  c12.052,12.052,32.508,3.322,32.508-13.457V24.086C69.051,13.602,60.484,5.035,50,5.035L50,5.035z M50,10.326  c-7.562,0-13.76,6.197-13.76,13.759v23.979c0,12.076,14.744,18.446,23.475,9.715c2.495-2.495,4.044-5.934,4.044-9.715V24.086  C63.759,16.524,57.562,10.326,50,10.326z"/><text x="0" y="115" fill="#000000" font-size="5px" font-weight="bold" font-family="'Helvetica Neue', Helvetica, Arial-Unicode, Arial, Sans-serif">Created by Hidayatul Munawaroh</text><text x="0" y="120" fill="#000000" font-size="5px" font-weight="bold" font-family="'Helvetica Neue', Helvetica, Arial-Unicode, Arial, Sans-serif">from the Noun Project</text></svg>